<svg xmlns="http://www.w3.org/2000/svg" xmlns:xlink="http://www.w3.org/1999/xlink" style="margin:auto;background:#fff;display:block;" width="200px" height="200px" viewBox="0 0 100 100" preserveAspectRatio="xMidYMid">
    <g transform="rotate(0 50 50)">
      <rect x="47" y="24" rx="0" ry="0" width="6" height="12" fill="#ffffff">
        <animate attributeName="opacity" values="1;0" keyTimes="0;1" dur="2.8571428571428568s" begin="-2.619047619047619s" repeatCount="indefinite"></animate>
      </rect>
    </g><g transform="rotate(30 50 50)">
      <rect x="47" y="24" rx="0" ry="0" width="6" height="12" fill="#ffffff">
        <animate attributeName="opacity" values="1;0" keyTimes="0;1" dur="2.8571428571428568s" begin="-2.380952380952381s" repeatCount="indefinite"></animate>
      </rect>
    </g><g transform="rotate(60 50 50)">
      <rect x="47" y="24" rx="0" ry="0" width="6" height="12" fill="#ffffff">
        <animate attributeName="opacity" values="1;0" keyTimes="0;1" dur="2.8571428571428568s" begin="-2.142857142857143s" repeatCount="indefinite"></animate>
      </rect>
    </g><g transform="rotate(90 50 50)">
      <rect x="47" y="24" rx="0" ry="0" width="6" height="12" fill="#ffffff">
        <animate attributeName="opacity" values="1;0" keyTimes="0;1" dur="2.8571428571428568s" begin="-1.9047619047619047s" repeatCount="indefinite"></animate>
      </rect>
    </g><g transform="rotate(120 50 50)">
      <rect x="47" y="24" rx="0" ry="0" width="6" height="12" fill="#ffffff">
        <animate attributeName="opacity" values="1;0" keyTimes="0;1" dur="2.8571428571428568s" begin="-1.6666666666666665s" repeatCount="indefinite"></animate>
      </rect>
    </g><g transform="rotate(150 50 50)">
      <rect x="47" y="24" rx="0" ry="0" width="6" height="12" fill="#ffffff">
        <animate attributeName="opacity" values="1;0" keyTimes="0;1" dur="2.8571428571428568s" begin="-1.4285714285714286s" repeatCount="indefinite"></animate>
      </rect>
    </g><g transform="rotate(180 50 50)">
      <rect x="47" y="24" rx="0" ry="0" width="6" height="12" fill="#ffffff">
        <animate attributeName="opacity" values="1;0" keyTimes="0;1" dur="2.8571428571428568s" begin="-1.1904761904761905s" repeatCount="indefinite"></animate>
      </rect>
    </g><g transform="rotate(210 50 50)">
      <rect x="47" y="24" rx="0" ry="0" width="6" height="12" fill="#ffffff">
        <animate attributeName="opacity" values="1;0" keyTimes="0;1" dur="2.8571428571428568s" begin="-0.9523809523809523s" repeatCount="indefinite"></animate>
      </rect>
    </g><g transform="rotate(240 50 50)">
      <rect x="47" y="24" rx="0" ry="0" width="6" height="12" fill="#ffffff">
        <animate attributeName="opacity" values="1;0" keyTimes="0;1" dur="2.8571428571428568s" begin="-0.7142857142857143s" repeatCount="indefinite"></animate>
      </rect>
    </g><g transform="rotate(270 50 50)">
      <rect x="47" y="24" rx="0" ry="0" width="6" height="12" fill="#ffffff">
        <animate attributeName="opacity" values="1;0" keyTimes="0;1" dur="2.8571428571428568s" begin="-0.47619047619047616s" repeatCount="indefinite"></animate>
      </rect>
    </g><g transform="rotate(300 50 50)">
      <rect x="47" y="24" rx="0" ry="0" width="6" height="12" fill="#ffffff">
        <animate attributeName="opacity" values="1;0" keyTimes="0;1" dur="2.8571428571428568s" begin="-0.23809523809523808s" repeatCount="indefinite"></animate>
      </rect>
    </g><g transform="rotate(330 50 50)">
      <rect x="47" y="24" rx="0" ry="0" width="6" height="12" fill="#ffffff">
        <animate attributeName="opacity" values="1;0" keyTimes="0;1" dur="2.8571428571428568s" begin="0s" repeatCount="indefinite"></animate>
      </rect>
    </g>
    </svg>